<svg xmlns="http://www.w3.org/2000/svg" width="998" height="1046" viewBox="0 0 998 1046" fill="none">
  <path d="M 623.75 207.342 L 763.636 60.728 L 940.058 245.638 L 800.175 392.25 L 998 392.25 L 998 653.75 L 800.172 653.75 L 940.058 800.364 L 763.636 985.272 L 623.75 838.658 L 623.75 1046 L 374.25 1046 L 374.25 838.658 L 234.366 985.272 L 57.942 800.364 L 197.828 653.75 L 0 653.75 L 0 392.25 L 197.825 392.25 L 57.942 245.638 L 234.366 60.728 L 374.25 207.34 L 374.25 0 L 623.75 0 L 623.75 207.342 Z" fill="currentColor" fill-rule="nonzero"/>
  <path d="M 623.75 207.342 L 615.75 207.342 L 615.75 227.316 L 629.538 212.865 L 623.75 207.342 Z M 763.636 60.728 L 769.424 55.206 L 763.636 49.139 L 757.848 55.206 L 763.636 60.728 Z M 940.058 245.638 L 945.846 251.161 L 951.115 245.639 L 945.846 240.116 L 940.058 245.638 Z M 800.175 392.25 L 794.387 386.728 L 781.485 400.25 L 800.175 400.25 L 800.175 392.25 Z M 998 392.25 L 1006 392.25 L 1006 384.25 L 998 384.25 L 998 392.25 Z M 998 653.75 L 998 661.75 L 1006 661.75 L 1006 653.75 L 998 653.75 Z M 800.172 653.75 L 800.172 645.75 L 781.482 645.75 L 794.384 659.272 L 800.172 653.75 Z M 940.058 800.364 L 945.846 805.886 L 951.116 800.364 L 945.846 794.841 L 940.058 800.364 Z M 763.636 985.272 L 757.848 990.794 L 763.636 996.861 L 769.424 990.794 L 763.636 985.272 Z M 623.75 838.658 L 629.538 833.135 L 615.75 818.684 L 615.75 838.658 L 623.75 838.658 Z M 623.75 1046 L 623.75 1054 L 631.75 1054 L 631.75 1046 L 623.75 1046 Z M 374.25 1046 L 366.25 1046 L 366.25 1054 L 374.25 1054 L 374.25 1046 Z M 374.25 838.658 L 382.25 838.658 L 382.25 818.684 L 368.462 833.135 L 374.25 838.658 Z M 234.366 985.272 L 228.578 990.794 L 234.366 996.861 L 240.154 990.794 L 234.366 985.272 Z M 57.942 800.364 L 52.154 794.841 L 46.884 800.364 L 52.154 805.886 L 57.942 800.364 Z M 197.828 653.75 L 203.616 659.272 L 216.518 645.75 L 197.828 645.75 L 197.828 653.75 Z M 0 653.75 L -8 653.75 L -8 661.75 L 0 661.75 L 0 653.75 Z M 0 392.25 L 0 384.25 L -8 384.25 L -8 392.25 L 0 392.25 Z M 197.825 392.25 L 197.825 400.25 L 216.515 400.25 L 203.613 386.728 L 197.825 392.25 Z M 57.942 245.638 L 52.154 240.116 L 46.884 245.638 L 52.154 251.161 L 57.942 245.638 Z M 234.366 60.728 L 240.154 55.206 L 234.366 49.139 L 228.578 55.206 L 234.366 60.728 Z M 374.25 207.34 L 368.462 212.862 L 382.25 227.314 L 382.25 207.34 L 374.25 207.34 Z M 374.25 0 L 374.25 -8 L 366.25 -8 L 366.25 0 L 374.25 0 Z M 623.75 0 L 631.75 0 L 631.75 -8 L 623.75 -8 L 623.75 0 Z M 623.75 207.342 L 629.538 212.865 L 769.424 66.251 L 763.636 60.728 L 757.848 55.206 L 617.962 201.82 L 623.75 207.342 Z M 763.636 60.728 L 757.848 66.251 L 934.27 251.161 L 940.058 245.638 L 945.846 240.116 L 769.424 55.206 L 763.636 60.728 Z M 940.058 245.638 L 934.27 240.116 L 794.387 386.728 L 800.175 392.25 L 805.963 397.772 L 945.846 251.161 L 940.058 245.638 Z M 800.175 392.25 L 800.175 400.25 L 998 400.25 L 998 392.25 L 998 384.25 L 800.175 384.25 L 800.175 392.25 Z M 998 392.25 L 990 392.25 L 990 653.75 L 998 653.75 L 1006 653.75 L 1006 392.25 L 998 392.25 Z M 998 653.75 L 998 645.75 L 800.172 645.75 L 800.172 653.75 L 800.172 661.75 L 998 661.75 L 998 653.75 Z M 800.172 653.75 L 794.384 659.272 L 934.27 805.886 L 940.058 800.364 L 945.846 794.841 L 805.961 648.227 L 800.172 653.75 Z M 940.058 800.364 L 934.27 794.841 L 757.848 979.749 L 763.636 985.272 L 769.424 990.794 L 945.846 805.886 L 940.058 800.364 Z M 763.636 985.272 L 769.424 979.749 L 629.538 833.135 L 623.75 838.658 L 617.962 844.18 L 757.848 990.794 L 763.636 985.272 Z M 623.75 838.658 L 615.75 838.658 L 615.75 1046 L 623.75 1046 L 631.75 1046 L 631.75 838.658 L 623.75 838.658 Z M 623.75 1046 L 623.75 1038 L 374.25 1038 L 374.25 1046 L 374.25 1054 L 623.75 1054 L 623.75 1046 Z M 374.25 1046 L 382.25 1046 L 382.25 838.658 L 374.25 838.658 L 366.25 838.658 L 366.25 1046 L 374.25 1046 Z M 374.25 838.658 L 368.462 833.135 L 228.578 979.749 L 234.366 985.272 L 240.154 990.794 L 380.038 844.18 L 374.25 838.658 Z M 234.366 985.272 L 240.154 979.749 L 63.73 794.841 L 57.942 800.364 L 52.154 805.886 L 228.578 990.794 L 234.366 985.272 Z M 57.942 800.364 L 63.73 805.886 L 203.616 659.272 L 197.828 653.75 L 192.039 648.227 L 52.154 794.841 L 57.942 800.364 Z M 197.828 653.75 L 197.828 645.75 L 0 645.75 L 0 653.75 L 0 661.75 L 197.828 661.75 L 197.828 653.75 Z M 0 653.75 L 8 653.75 L 8 392.25 L 0 392.25 L -8 392.25 L -8 653.75 L 0 653.75 Z M 0 392.25 L 0 400.25 L 197.825 400.25 L 197.825 392.25 L 197.825 384.25 L 0 384.25 L 0 392.25 Z M 197.825 392.25 L 203.613 386.728 L 63.73 240.116 L 57.942 245.638 L 52.154 251.161 L 192.037 397.772 L 197.825 392.25 Z M 57.942 245.638 L 63.73 251.161 L 240.154 66.251 L 234.366 60.728 L 228.578 55.206 L 52.154 240.116 L 57.942 245.638 Z M 234.366 60.728 L 228.578 66.251 L 368.462 212.862 L 374.25 207.34 L 380.038 201.817 L 240.154 55.206 L 234.366 60.728 Z M 374.25 207.34 L 382.25 207.34 L 382.25 0 L 374.25 0 L 366.25 0 L 366.25 207.34 L 374.25 207.34 Z M 374.25 0 L 374.25 8 L 623.75 8 L 623.75 0 L 623.75 -8 L 374.25 -8 L 374.25 0 Z M 623.75 0 L 615.75 0 L 615.75 207.342 L 623.75 207.342 L 631.75 207.342 L 631.75 0 L 623.75 0 Z" fill="currentColor" fill-rule="nonzero"/>
</svg>
