<svg xmlns="http://www.w3.org/2000/svg" width="367" height="367" viewBox="0 0 367 367" fill="none">
  <path d="M 229.375 72.748 L 280.815 21.308 L 345.692 86.185 L 294.252 137.625 L 367 137.625 L 367 229.375 L 294.252 229.375 L 345.692 280.815 L 280.815 345.692 L 229.375 294.252 L 229.375 367 L 137.625 367 L 137.625 294.252 L 86.185 345.692 L 21.308 280.815 L 72.748 229.375 L 0 229.375 L 0 137.625 L 72.748 137.625 L 21.308 86.185 L 86.185 21.308 L 137.625 72.748 L 137.625 0 L 229.375 0 L 229.375 72.748 Z" fill="currentColor" fill-rule="nonzero"/>
  <path d="M 229.375 72.748 L 228.375 72.748 L 228.375 75.162 L 230.082 73.455 L 229.375 72.748 Z M 280.815 21.308 L 281.523 20.601 L 280.815 19.893 L 280.108 20.601 L 280.815 21.308 Z M 345.692 86.185 L 346.399 86.892 L 347.107 86.185 L 346.399 85.477 L 345.692 86.185 Z M 294.252 137.625 L 293.545 136.918 L 291.838 138.625 L 294.252 138.625 L 294.252 137.625 Z M 367 137.625 L 368 137.625 L 368 136.625 L 367 136.625 L 367 137.625 Z M 367 229.375 L 367 230.375 L 368 230.375 L 368 229.375 L 367 229.375 Z M 294.252 229.375 L 294.252 228.375 L 291.838 228.375 L 293.545 230.082 L 294.252 229.375 Z M 345.692 280.815 L 346.399 281.523 L 347.107 280.815 L 346.399 280.108 L 345.692 280.815 Z M 280.815 345.692 L 280.108 346.399 L 280.815 347.107 L 281.523 346.399 L 280.815 345.692 Z M 229.375 294.252 L 230.082 293.545 L 228.375 291.838 L 228.375 294.252 L 229.375 294.252 Z M 229.375 367 L 229.375 368 L 230.375 368 L 230.375 367 L 229.375 367 Z M 137.625 367 L 136.625 367 L 136.625 368 L 137.625 368 L 137.625 367 Z M 137.625 294.252 L 138.625 294.252 L 138.625 291.838 L 136.918 293.545 L 137.625 294.252 Z M 86.185 345.692 L 85.477 346.399 L 86.185 347.107 L 86.892 346.399 L 86.185 345.692 Z M 21.308 280.815 L 20.601 280.108 L 19.893 280.815 L 20.601 281.523 L 21.308 280.815 Z M 72.748 229.375 L 73.455 230.082 L 75.162 228.375 L 72.748 228.375 L 72.748 229.375 Z M 0 229.375 L -1 229.375 L -1 230.375 L 0 230.375 L 0 229.375 Z M 0 137.625 L 0 136.625 L -1 136.625 L -1 137.625 L 0 137.625 Z M 72.748 137.625 L 72.748 138.625 L 75.162 138.625 L 73.455 136.918 L 72.748 137.625 Z M 21.308 86.185 L 20.601 85.477 L 19.893 86.185 L 20.601 86.892 L 21.308 86.185 Z M 86.185 21.308 L 86.892 20.601 L 86.185 19.893 L 85.477 20.601 L 86.185 21.308 Z M 137.625 72.748 L 136.918 73.455 L 138.625 75.162 L 138.625 72.748 L 137.625 72.748 Z M 137.625 0 L 137.625 -1 L 136.625 -1 L 136.625 0 L 137.625 0 Z M 229.375 0 L 230.375 0 L 230.375 -1 L 229.375 -1 L 229.375 0 Z M 229.375 72.748 L 230.082 73.455 L 281.523 22.015 L 280.815 21.308 L 280.108 20.601 L 228.668 72.041 L 229.375 72.748 Z M 280.815 21.308 L 280.108 22.015 L 344.985 86.892 L 345.692 86.185 L 346.399 85.477 L 281.523 20.601 L 280.815 21.308 Z M 345.692 86.185 L 344.985 85.477 L 293.545 136.918 L 294.252 137.625 L 294.959 138.332 L 346.399 86.892 L 345.692 86.185 Z M 294.252 137.625 L 294.252 138.625 L 367 138.625 L 367 137.625 L 367 136.625 L 294.252 136.625 L 294.252 137.625 Z M 367 137.625 L 366 137.625 L 366 229.375 L 367 229.375 L 368 229.375 L 368 137.625 L 367 137.625 Z M 367 229.375 L 367 228.375 L 294.252 228.375 L 294.252 229.375 L 294.252 230.375 L 367 230.375 L 367 229.375 Z M 294.252 229.375 L 293.545 230.082 L 344.985 281.523 L 345.692 280.815 L 346.399 280.108 L 294.959 228.668 L 294.252 229.375 Z M 345.692 280.815 L 344.985 280.108 L 280.108 344.985 L 280.815 345.692 L 281.523 346.399 L 346.399 281.523 L 345.692 280.815 Z M 280.815 345.692 L 281.523 344.985 L 230.082 293.545 L 229.375 294.252 L 228.668 294.959 L 280.108 346.399 L 280.815 345.692 Z M 229.375 294.252 L 228.375 294.252 L 228.375 367 L 229.375 367 L 230.375 367 L 230.375 294.252 L 229.375 294.252 Z M 229.375 367 L 229.375 366 L 137.625 366 L 137.625 367 L 137.625 368 L 229.375 368 L 229.375 367 Z M 137.625 367 L 138.625 367 L 138.625 294.252 L 137.625 294.252 L 136.625 294.252 L 136.625 367 L 137.625 367 Z M 137.625 294.252 L 136.918 293.545 L 85.477 344.985 L 86.185 345.692 L 86.892 346.399 L 138.332 294.959 L 137.625 294.252 Z M 86.185 345.692 L 86.892 344.985 L 22.015 280.108 L 21.308 280.815 L 20.601 281.523 L 85.477 346.399 L 86.185 345.692 Z M 21.308 280.815 L 22.015 281.523 L 73.455 230.082 L 72.748 229.375 L 72.041 228.668 L 20.601 280.108 L 21.308 280.815 Z M 72.748 229.375 L 72.748 228.375 L 0 228.375 L 0 229.375 L 0 230.375 L 72.748 230.375 L 72.748 229.375 Z M 0 229.375 L 1 229.375 L 1 137.625 L 0 137.625 L -1 137.625 L -1 229.375 L 0 229.375 Z M 0 137.625 L 0 138.625 L 72.748 138.625 L 72.748 137.625 L 72.748 136.625 L 0 136.625 L 0 137.625 Z M 72.748 137.625 L 73.455 136.918 L 22.015 85.477 L 21.308 86.185 L 20.601 86.892 L 72.041 138.332 L 72.748 137.625 Z M 21.308 86.185 L 22.015 86.892 L 86.892 22.015 L 86.185 21.308 L 85.477 20.601 L 20.601 85.477 L 21.308 86.185 Z M 86.185 21.308 L 85.477 22.015 L 136.918 73.455 L 137.625 72.748 L 138.332 72.041 L 86.892 20.601 L 86.185 21.308 Z M 137.625 72.748 L 138.625 72.748 L 138.625 0 L 137.625 0 L 136.625 0 L 136.625 72.748 L 137.625 72.748 Z M 137.625 0 L 137.625 1 L 229.375 1 L 229.375 0 L 229.375 -1 L 137.625 -1 L 137.625 0 Z M 229.375 0 L 228.375 0 L 228.375 72.748 L 229.375 72.748 L 230.375 72.748 L 230.375 0 L 229.375 0 Z" fill="currentColor" fill-rule="nonzero"/>
</svg>
