<svg width="19" height="19" viewBox="0 0 19 19" fill="none" xmlns="http://www.w3.org/2000/svg">
<path d="M18.1116 0.0557128V0H7.61697L6.46171 1.15704C6.31767 1.30129 6.17364 1.44455 6.0296 1.58881C4.75216 2.8702 3.4777 4.15558 2.19827 5.43498C1.55558 6.07767 0.902956 6.7124 0.255296 7.35111C0.253309 7.3531 0.251317 7.35508 0.24933 7.35707L0 7.59883V18.1116H10.3983C10.5106 18.0131 10.6288 17.9196 10.7341 17.8142C12.0731 16.4761 13.4101 15.134 14.7502 13.7969C15.3154 13.2328 15.8895 12.6796 16.4567 12.1175C16.9037 11.6748 17.3468 11.2301 17.7888 10.7824C17.902 10.668 18.0034 10.5427 18.1097 10.4223V4.0352C18.1097 2.72694 18.1097 1.41968 18.1097 0.111426C18.1097 0.092523 18.1097 0.0726256 18.1097 0.0557128H18.1116ZM7.36863 14.6952C7.36863 14.8982 7.36465 14.9012 7.16598 14.9012C6.07629 14.9012 4.98659 14.9012 3.89788 14.9012C3.71312 14.9012 3.52836 14.9121 3.34459 14.9151C3.19559 14.9181 3.13003 14.8514 3.13102 14.6933C3.135 13.4437 3.135 12.1941 3.13102 10.9446C3.13102 10.7993 3.1797 10.7247 3.32969 10.7267C3.37737 10.7267 3.42506 10.7217 3.47174 10.7217C4.68263 10.7217 5.89351 10.7217 7.10539 10.7217C7.35969 10.7217 7.36962 10.7327 7.36962 10.9923C7.36962 11.6012 7.36962 12.2101 7.36962 12.8189C7.36962 13.4437 7.36962 14.0685 7.36962 14.6933L7.36863 14.6952ZM14.036 5.00818H14.033C14.033 7.74806 14.033 10.4879 14.036 13.2268L10.4629 16.8054V16.4044V7.61176H1.31916L4.78395 4.14165C4.82269 4.1327 4.86441 4.12772 4.90911 4.12772C7.41432 4.12971 9.91855 4.13071 12.4238 4.12772V4.12573H14.035V5.00719L14.036 5.00818Z" fill="#0041CA"></path>
</svg>