<svg width="132" height="19" viewBox="0 0 132 19" fill="none" xmlns="http://www.w3.org/2000/svg">
<path d="M4.93105 4.93873C4.93105 5.75841 5.46986 6.22078 8.66337 6.79409C15.0298 7.93672 16.3096 9.85391 16.3096 12.5751C16.3096 14.24 15.5078 18.1116 8.08435 18.1116C5.28537 18.1116 1.22131 17.3823 0.399892 12.5005L0.360606 12.2668H4.88005L4.92617 12.4043C5.45415 13.9936 6.02631 14.7023 8.47202 14.7023C11.3505 14.7023 11.6832 13.7285 11.6832 12.9962C11.6832 11.9792 11.0335 11.3529 7.47884 10.7492C1.19579 9.67527 0.3302 7.51365 0.3302 5.33829C0.3302 2.09583 3.27345 0 7.82625 0C14.6147 0 15.5284 3.95313 15.6471 5.16454L15.6687 5.38441H11.1601L11.1189 5.23914C10.8618 4.33601 10.2533 3.41225 7.69668 3.41225C6.43462 3.41225 4.93105 3.67732 4.93105 4.93873Z" fill="#121212"></path>
<path fill-rule="evenodd" clip-rule="evenodd" d="M49.9701 17.985H55.0823L48.4107 0.211069H42.4604L35.7602 17.985H40.7566L42.1139 13.972H48.6413L49.9701 17.985ZM45.3781 3.63019L47.7178 10.8208H43.0384L45.3781 3.63019Z" fill="#121212"></path>
<path d="M62.2732 14.4029H71.8331V17.985H57.3052V0.211069H62.2732V14.4029Z" fill="#121212"></path>
<path d="M74.1541 0.211069V17.985H88.9735V14.4029H79.1221V10.7669H88.3621V7.40076H79.1221V3.79218H89V0.211069H74.1541Z" fill="#121212"></path>
<path fill-rule="evenodd" clip-rule="evenodd" d="M108.719 17.985L103.753 10.8081C104.506 10.5735 105.161 10.2456 105.715 9.82447C106.967 8.87324 107.593 7.49107 107.593 5.67695C107.593 4.02579 106.962 2.70154 105.701 1.70415C104.44 0.707766 102.673 0.209091 100.401 0.209091H91.3034V17.985H96.1839V11.4943H99.1606L103.231 17.985H108.719ZM96.1829 3.71165H99.7062C100.669 3.71165 101.391 3.8913 101.872 4.25059C102.353 4.60989 102.595 5.17532 102.595 5.9469C102.595 6.71848 102.353 7.31142 101.872 7.67072C101.39 8.02997 100.668 8.20962 99.7062 8.20962H96.1829V3.71165Z" fill="#121212"></path>
<path d="M22.0597 9.13532C22.0597 12.1068 24.1197 14.1467 26.8127 14.1467C28.7922 14.1467 30.3183 12.8195 30.9523 10.759H35.2097C34.4765 15.9294 31.1142 18.0086 26.8127 18.0086C21.3668 18.0086 17.6237 14.4029 17.6237 9.13435C17.6237 3.86577 21.3668 0.260141 26.8127 0.260141C30.1328 0.260141 33.4981 1.52943 34.7857 5.28134L30.7913 6.63504C30.0837 4.90537 28.644 4.12397 26.8127 4.12397C24.1197 4.12397 22.0597 6.16387 22.0597 9.13532Z" fill="#121212"></path>
<path d="M131.563 0.0557128V0H121.068L119.913 1.15704C119.769 1.30129 119.625 1.44455 119.481 1.58881C118.204 2.8702 116.929 4.15558 115.65 5.43498C115.007 6.07767 114.354 6.7124 113.707 7.35111C113.705 7.3531 113.703 7.35508 113.701 7.35707L113.451 7.59883V18.1116H123.85C123.962 18.0131 124.08 17.9196 124.185 17.8142C125.524 16.4761 126.861 15.134 128.202 13.7969C128.767 13.2328 129.341 12.6796 129.908 12.1175C130.355 11.6748 130.798 11.2301 131.24 10.7824C131.353 10.668 131.455 10.5427 131.561 10.4223V4.0352C131.561 2.72694 131.561 1.41968 131.561 0.111426C131.561 0.092523 131.561 0.0726256 131.561 0.0557128H131.563ZM120.82 14.6952C120.82 14.8982 120.816 14.9012 120.617 14.9012C119.528 14.9012 118.438 14.9012 117.349 14.9012C117.164 14.9012 116.98 14.9121 116.796 14.9151C116.647 14.9181 116.581 14.8514 116.582 14.6933C116.586 13.4437 116.586 12.1941 116.582 10.9446C116.582 10.7993 116.631 10.7247 116.781 10.7267C116.829 10.7267 116.876 10.7217 116.923 10.7217C118.134 10.7217 119.345 10.7217 120.557 10.7217C120.811 10.7217 120.821 10.7327 120.821 10.9923C120.821 11.6012 120.821 12.2101 120.821 12.8189C120.821 13.4437 120.821 14.0685 120.821 14.6933L120.82 14.6952ZM127.487 5.00818H127.484C127.484 7.74806 127.484 10.4879 127.487 13.2268L123.914 16.8054V16.4044V7.61176H114.771L118.235 4.14165C118.274 4.1327 118.316 4.12772 118.36 4.12772C120.866 4.12971 123.37 4.13071 125.875 4.12772V4.12573H127.486V5.00719L127.487 5.00818Z" fill="#0041CA"></path>
</svg>